<?xml version="1.0" standalone="no"?>
<!DOCTYPE svg PUBLIC "-//W3C//DTD SVG 20010904//EN"
 "http://www.w3.org/TR/2001/REC-SVG-20010904/DTD/svg10.dtd">
<svg version="1.0" xmlns="http://www.w3.org/2000/svg"
 width="436.000000pt" height="436.000000pt" viewBox="0 0 436.000000 436.000000"
 preserveAspectRatio="xMidYMid meet">
<metadata>
Created by potrace 1.14, written by Peter Selinger 2001-2017
</metadata>
<g transform="translate(0.000000,436.000000) scale(0.100000,-0.100000)"
fill="#000000" stroke="none">
<path d="M1088 4353 c600 -2 1584 -2 2185 0 600 1 109 2 -1093 2 -1202 0
-1693 -1 -1092 -2z"/>
<path d="M2260 4094 c-150 -102 -156 -105 -195 -98 -86 16 -82 19 -280 -156
-102 -90 -191 -172 -196 -181 -5 -10 -9 -37 -9 -61 0 -24 -7 -73 -16 -111 -16
-63 -16 -71 1 -130 12 -41 19 -109 22 -203 l4 -141 31 -14 31 -15 -61 -27
c-42 -18 -66 -35 -76 -55 -8 -16 -22 -34 -30 -41 -14 -12 -16 3 -16 153 0 91
-2 166 -4 166 -3 0 -121 27 -263 60 -141 33 -263 60 -270 60 -10 0 -13 -42
-13 -189 l0 -189 44 -11 c25 -6 50 -11 55 -11 7 0 11 44 11 126 0 115 1 125
18 120 9 -3 36 -10 60 -16 l42 -11 0 -109 c0 -121 -3 -115 70 -123 l25 -2 3
108 3 107 27 -7 c85 -21 76 -5 82 -143 l5 -124 33 -8 c34 -9 37 -14 23 -37 -5
-8 -19 -12 -35 -9 -21 4 -29 -1 -46 -30 l-21 -35 21 -14 c23 -16 28 -73 7 -73
-16 0 -158 31 -297 65 -58 14 -111 25 -117 25 -20 0 -18 -119 2 -126 8 -4 106
-27 218 -53 l202 -47 5 -84 5 -84 43 -9 c23 -4 42 -14 42 -20 -1 -38 -14 -37
-266 22 -137 32 -252 56 -256 54 -5 -2 -8 -31 -8 -63 0 -65 -4 -61 85 -80 126
-27 125 -27 125 -70 0 -59 -21 -74 -94 -66 -34 3 -73 9 -88 12 l-28 6 0 -60 0
-61 38 -11 c20 -7 69 -14 108 -17 64 -5 74 -3 94 17 l22 22 15 -21 c25 -37 67
-71 99 -81 25 -8 33 -18 37 -43 3 -18 8 -40 12 -49 6 -14 -4 -12 -52 12 -205
101 -382 28 -383 -161 -1 -192 163 -349 363 -349 106 0 174 48 202 143 l12 42
46 -98 c34 -73 53 -102 76 -115 24 -13 31 -24 31 -47 1 -44 32 -107 71 -139
50 -42 58 -88 59 -324 0 -171 -2 -204 -15 -208 -20 -8 -20 -109 0 -148 17 -32
20 -92 5 -101 -14 -8 -13 -62 1 -71 58 -36 819 -74 856 -43 15 12 43 14 158 8
77 -4 211 -7 297 -8 l158 -1 6 26 c4 14 1 37 -5 50 -6 14 -11 33 -11 43 0 31
-37 67 -135 132 -67 44 -94 68 -90 78 15 50 24 126 15 135 -5 5 -34 11 -64 14
l-55 4 -20 88 c-25 104 -26 126 -6 133 24 10 57 87 62 146 7 79 -11 138 -58
185 l-40 39 3 86 3 86 57 15 c95 25 92 15 90 277 -1 125 -5 275 -8 333 -4 71
-3 102 4 95 5 -5 12 -19 14 -30 2 -12 13 -21 28 -24 14 -1 36 -11 50 -20 19
-13 51 -18 137 -20 l112 -2 30 42 c17 23 33 57 37 76 4 19 18 55 31 80 24 41
25 51 21 146 -3 56 -1 167 3 247 26 452 29 554 14 576 -12 19 -12 24 0 34 7 6
23 32 36 58 34 70 33 190 -1 252 -23 42 -31 46 -93 65 -78 22 -106 15 -97 -26
3 -13 5 -56 5 -96 0 -79 -22 -125 -64 -131 -56 -9 -77 58 -41 135 22 49 18 54
-49 67 -29 5 -37 2 -68 -32 -97 -103 -97 -244 1 -330 20 -17 41 -32 46 -32 18
0 10 -15 -17 -30 l-26 -15 1 -320 1 -320 -19 60 c-12 35 -20 89 -20 130 0 80
-23 130 -65 141 -17 4 -27 15 -31 33 -7 31 -35 89 -49 101 -6 5 -46 15 -89 22
l-79 13 47 38 46 38 0 373 c0 403 2 389 -55 399 -16 3 -78 16 -137 28 l-108
22 0 128 0 129 -32 20 c-18 11 -44 20 -58 19 -15 0 -89 -44 -180 -105z m200
-49 c0 -77 -4 -125 -10 -125 -5 0 -10 22 -10 48 0 60 12 202 16 202 2 0 4 -56
4 -125z m-40 77 c0 -22 -3 -73 -6 -114 l-7 -75 -45 9 c-25 4 -47 10 -50 13 -2
2 11 14 31 25 29 17 36 28 39 60 4 44 1 60 -13 60 -5 0 -50 -27 -99 -60 -82
-55 -133 -79 -102 -48 17 17 235 166 245 167 4 1 7 -16 7 -37z m80 -94 c0 -90
-3 -119 -11 -111 -8 8 -9 45 -4 122 4 61 9 111 11 111 2 0 4 -55 4 -122z
m-150 23 c0 -9 -110 -84 -116 -79 -3 3 104 85 114 87 1 1 2 -3 2 -8z m-335
-81 c3 -5 1 -10 -4 -10 -6 0 -11 5 -11 10 0 6 2 10 4 10 3 0 8 -4 11 -10z m70
-10 c4 -6 10 -8 14 -6 4 3 45 -4 92 -15 46 -10 111 -23 144 -29 33 -6 146 -26
250 -46 l191 -36 -1 -27 c0 -15 5 -25 13 -23 9 1 12 -66 12 -313 0 -295 -1
-316 -17 -313 -14 2 -18 -4 -18 -25 1 -30 7 -30 -120 -6 -74 14 -155 27 -215
34 -25 3 -56 8 -70 11 -14 3 -65 12 -115 20 -49 7 -99 15 -110 18 -11 2 -40 5
-64 5 -40 1 -43 3 -27 14 27 19 17 52 -16 52 l-26 -1 0 324 c0 264 2 321 12
312 8 -5 21 -8 30 -4 19 7 22 50 4 57 -7 3 -3 6 9 6 12 1 25 -4 28 -9z m-119
-74 c0 -63 -2 -73 -15 -69 -14 4 -14 4 -1 -6 18 -12 23 -144 5 -133 -5 3 -3
-2 5 -12 13 -16 12 -20 -5 -33 -13 -10 -14 -14 -4 -10 13 4 15 -13 16 -139 0
-90 -3 -147 -10 -151 -6 -3 -7 -1 -3 5 4 7 3 12 -1 12 -5 0 -17 14 -26 30 -10
17 -15 30 -11 30 3 0 2 6 -4 13 -28 33 -32 240 -7 355 4 17 11 32 14 32 4 0 7
16 6 35 -1 19 2 35 7 35 5 0 6 4 3 10 -5 8 20 70 28 70 2 0 3 -33 3 -74z
m-146 -310 c15 -31 20 -62 20 -117 0 -90 -13 -140 -46 -176 l-24 -28 25 50
c27 54 42 158 31 218 -4 19 -17 51 -31 70 -14 21 -18 34 -10 31 8 -3 23 -25
35 -48z m-51 18 c12 -15 26 -44 33 -66 10 -33 9 -44 -7 -76 l-18 -37 -14 45
c-7 24 -29 60 -48 80 -19 20 -35 39 -35 43 0 6 49 36 62 37 4 0 16 -12 27 -26z
m1658 5 c11 -4 25 -14 29 -21 6 -10 5 -11 -7 -1 -9 7 -31 14 -49 17 -19 2 -36
9 -38 16 -4 12 9 10 65 -11z m-56 -83 c14 -63 1 -135 -32 -176 -17 -21 -19
-22 -10 -3 6 12 16 34 21 50 10 26 9 27 -5 8 -34 -45 -79 -86 -107 -101 -33
-17 -98 -22 -138 -9 -24 7 -24 6 -7 -11 10 -11 39 -21 70 -25 l52 -6 -50 -2
c-58 -1 -87 15 -111 62 -19 36 -22 124 -6 153 10 17 11 15 12 -14 0 -44 23
-96 51 -116 31 -21 71 -20 118 4 75 38 105 102 99 213 -3 65 -2 67 14 47 9
-11 22 -45 29 -74z m39 -16 c1 -24 1 -24 14 5 14 34 22 26 41 -44 l13 -46 2
50 c2 47 3 48 9 15 9 -49 -6 -128 -35 -177 -13 -23 -28 -44 -32 -47 -7 -4 -77
11 -90 20 -2 1 8 19 22 39 15 21 31 56 37 79 11 39 8 128 -5 171 -4 11 0 7 8
-10 8 -16 16 -41 16 -55z m-1727 20 c14 -27 17 -51 14 -102 -5 -74 -26 -118
-57 -118 -26 0 -26 17 -1 25 24 7 41 54 41 111 0 53 -16 91 -42 97 -12 3 -17
10 -13 17 12 20 40 6 58 -30z m1443 -2 c-8 -18 -19 -49 -25 -68 l-11 -35 4 43
c4 37 28 92 41 92 3 0 -2 -15 -9 -32z m39 -10 c-22 -71 -25 -75 -21 -30 4 36
19 72 32 72 1 0 -3 -19 -11 -42z m125 -222 c0 -2 -8 -10 -17 -17 -16 -13 -17
-12 -4 4 13 16 21 21 21 13z m-1570 -16 c13 -9 13 -10 0 -10 -8 0 -22 5 -30
10 -13 9 -13 10 0 10 8 0 22 -5 30 -10z m1667 -38 c12 -7 6 -264 -12 -577 -2
-49 -7 -137 -10 -195 -4 -58 -8 -116 -11 -129 -10 -46 -25 0 -19 59 3 30 6
147 7 260 1 125 6 211 12 219 8 10 8 13 1 9 -7 -5 -10 30 -8 105 1 62 3 145 4
185 2 71 8 82 36 64z m-81 -286 c-5 -222 -10 -290 -21 -313 -8 -15 -15 -34
-15 -42 0 -17 -41 -91 -51 -91 -11 0 -60 61 -71 89 l-11 26 -7 -25 c-5 -14 -7
103 -6 259 1 241 3 285 16 292 8 5 39 22 69 39 29 17 56 29 58 26 3 -3 12 1
20 9 8 8 17 15 20 15 3 0 2 -128 -1 -284z m130 105 c-12 -308 -29 -546 -38
-556 -6 -6 -8 38 -4 120 3 72 8 216 12 320 4 105 8 197 10 205 1 8 3 30 3 48
1 22 5 31 12 26 9 -5 10 -50 5 -163z m-1471 120 c-16 -15 -317 -152 -323 -146
-3 2 10 11 29 19 19 8 93 42 164 75 135 63 145 67 130 52z m102 3 c-3 -3 -12
-4 -19 -1 -8 3 -5 6 6 6 11 1 17 -2 13 -5z m66 -11 c-7 -2 -19 -2 -25 0 -7 3
-2 5 12 5 14 0 19 -2 13 -5z m70 -10 c-7 -2 -21 -2 -30 0 -10 3 -4 5 12 5 17
0 24 -2 18 -5z m60 -10 c-7 -2 -21 -2 -30 0 -10 3 -4 5 12 5 17 0 24 -2 18 -5z
m60 -10 c-7 -2 -21 -2 -30 0 -10 3 -4 5 12 5 17 0 24 -2 18 -5z m54 -9 c-3 -3
-12 -4 -19 -1 -8 3 -5 6 6 6 11 1 17 -2 13 -5z m230 -30 c-3 -3 -12 -4 -19 -1
-8 3 -5 6 6 6 11 1 17 -2 13 -5z m66 -11 c-7 -2 -19 -2 -25 0 -7 3 -2 5 12 5
14 0 19 -2 13 -5z m-578 -24 c9 -9 -1 -8 -95 11 -40 8 -38 9 20 4 36 -3 69
-10 75 -15z m638 14 c-7 -2 -21 -2 -30 0 -10 3 -4 5 12 5 17 0 24 -2 18 -5z
m-514 -29 c8 -7 -64 -2 -89 6 -16 6 -6 7 30 3 30 -3 57 -7 59 -9z m501 -9
c-13 -16 -47 -19 -76 -8 -16 6 -16 7 2 14 10 4 34 8 53 8 29 1 32 -1 21 -14z
m-427 -2 c-7 -2 -21 -2 -30 0 -10 3 -4 5 12 5 17 0 24 -2 18 -5z m-383 -35 c0
-25 -3 -29 -12 -20 -17 17 -36 15 -95 -13 -29 -13 -53 -21 -53 -16 0 5 140 77
158 81 1 0 2 -14 2 -32z m458 25 c-10 -2 -28 -2 -40 0 -13 2 -5 4 17 4 22 1
32 -1 23 -4z m-573 -13 c-3 -5 -12 -10 -18 -10 -7 0 -6 4 3 10 19 12 23 12 15
0z m895 -26 c102 -14 190 -30 195 -36 7 -7 -1 -9 -25 -5 -19 3 -118 18 -220
32 -102 14 -194 30 -205 35 -25 10 15 6 255 -26z m-443 -2 c44 -4 79 -4 77 0
-7 11 13 10 76 -2 29 -6 89 -13 134 -16 140 -10 318 -42 250 -45 -10 0 10 -10
46 -22 103 -35 99 -5 117 -802 11 -447 10 -580 -2 -579 -5 1 -91 5 -190 8
-431 15 -515 19 -515 26 0 4 -27 10 -60 14 -33 4 -60 10 -60 14 0 4 -16 7 -35
8 -20 0 -41 6 -47 12 -7 7 -14 183 -20 559 -10 575 -8 800 5 821 9 13 89 15
224 4z m-521 -47 c-11 -8 -29 -15 -40 -15 -17 1 -15 4 9 15 40 18 55 18 31 0z
m144 -92 c-1 -48 -3 -55 -12 -38 -6 11 -22 32 -36 47 l-25 27 24 10 c45 18 49
14 49 -46z m-89 10 c49 -44 67 -77 74 -134 3 -24 2 -38 -1 -31 -9 19 -20 14
-34 -15 -13 -28 -14 -27 -21 29 -10 67 -38 128 -74 156 -30 24 -32 32 -5 32
11 0 38 -17 61 -37z m-105 8 c58 -35 88 -86 92 -157 3 -35 2 -64 -1 -64 -3 0
-14 15 -26 33 -17 26 -21 28 -21 12 0 -30 -20 3 -20 34 0 36 -39 110 -66 128
-14 9 -39 19 -57 23 -29 7 -27 8 18 9 33 1 61 -6 81 -18z m-84 -48 c9 -8 23
-34 31 -57 39 -117 -27 -260 -112 -241 -35 7 -69 50 -75 92 -2 15 -1 21 1 13
9 -25 47 -75 61 -78 27 -5 70 28 86 68 20 50 20 90 2 135 -34 80 -119 68 -146
-23 -6 -20 -8 -22 -9 -7 -1 30 41 98 69 112 28 15 67 9 92 -14z m1424 -38 c7
-19 13 -58 12 -87 -1 -43 -2 -46 -5 -15 -3 23 -9 37 -18 37 -9 0 -15 -14 -18
-37 -2 -26 -4 -18 -5 24 -1 34 -6 73 -12 87 -8 23 -7 26 11 26 13 0 25 -11 35
-35z m-1099 -27 c-3 -8 -6 -5 -6 6 -1 11 2 17 5 13 3 -3 4 -12 1 -19z m-428
-38 c-6 -24 -5 -57 0 -81 9 -38 8 -40 -6 -26 -19 18 -21 110 -3 132 18 22 19
19 9 -25z m428 -57 c-2 -16 -4 -3 -4 27 0 30 2 43 4 28 2 -16 2 -40 0 -55z
m-216 -71 c-20 -74 -80 -123 -148 -121 -21 0 -17 3 20 13 26 7 55 20 65 29 23
21 62 97 63 123 0 10 3 14 5 7 3 -6 0 -29 -5 -51z m1357 -79 c12 -38 18 -72
13 -80 -5 -10 -15 10 -29 59 -24 81 -26 88 -14 88 4 0 18 -30 30 -67z m-1124
-133 c16 -435 18 -565 9 -555 -29 29 -55 363 -31 392 5 7 9 45 8 85 -4 96 -1
252 4 247 2 -2 6 -78 10 -169z m1193 123 c-3 -10 -5 -4 -5 12 0 17 2 24 5 18
2 -7 2 -21 0 -30z m-1247 -57 c0 -39 -3 -44 -25 -48 -14 -3 -25 -3 -25 0 0 9
41 92 46 92 2 0 4 -20 4 -44z m-199 3 c-5 -13 -10 -19 -10 -12 -1 15 10 45 15
40 3 -2 0 -15 -5 -28z m69 22 c0 -23 -24 -71 -35 -71 -20 0 -23 11 -13 48 6
22 15 32 28 32 11 0 20 -4 20 -9z m-11 -157 c-23 -82 -47 -156 -55 -164 -12
-12 -14 -12 -14 3 0 13 -9 17 -36 17 -30 0 -35 3 -29 18 3 9 19 67 35 127 16
61 29 102 30 93 0 -21 33 -40 54 -32 8 3 20 22 27 42 14 43 20 55 25 50 2 -3
-15 -72 -37 -154z m1676 70 c0 -66 -4 -85 -24 -118 -28 -44 -41 -34 -17 13 11
20 16 57 16 111 0 61 3 81 13 77 8 -2 12 -29 12 -83z m-155 8 c75 -76 61 -231
-26 -278 -30 -17 -36 -17 -44 -4 -7 11 -5 16 9 18 10 2 32 17 47 35 55 61 40
187 -26 219 -31 15 -80 13 -80 -3 0 -5 -6 -9 -12 -9 -7 0 0 12 15 25 38 34 81
33 117 -3z m-1646 -46 c-3 -15 -8 -25 -11 -23 -2 3 -1 17 3 31 3 15 8 25 11
23 2 -3 1 -17 -3 -31z m1573 -14 c19 -12 34 -63 28 -93 -12 -53 -63 -73 -79
-32 -5 13 -4 14 9 3 21 -18 28 -8 15 24 -5 15 -10 41 -10 59 0 30 -1 30 -16
11 -8 -10 -12 -12 -8 -4 19 39 36 48 61 32z m-1297 -57 c0 -31 -4 -35 -37 -44
-61 -17 -75 -15 -68 12 4 12 9 29 11 38 4 15 71 39 87 32 4 -3 7 -19 7 -38z
m1470 -84 c0 -26 -42 -85 -64 -89 -18 -4 -18 -2 2 22 11 15 24 40 27 56 7 33
35 41 35 11z m-2003 -44 c1 -1 -7 -27 -17 -57 -22 -64 -46 -75 -83 -38 -22 23
-44 99 -32 117 3 7 123 -14 132 -22z m1733 -21 c14 -18 14 -19 -8 -7 -12 7
-20 17 -16 22 3 6 7 9 8 7 1 -2 8 -12 16 -22z m-1520 -79 c0 -55 -12 -100 -23
-87 -8 10 6 160 14 154 5 -3 9 -33 9 -67z m-146 8 c-9 -21 -14 -54 -12 -72 4
-36 -7 -45 -17 -13 -8 26 2 78 22 108 21 35 26 21 7 -23z m236 -24 c0 -33 -4
-62 -9 -65 -4 -3 -8 24 -7 59 1 81 16 86 16 6z m-293 17 c-3 -8 -6 -5 -6 6 -1
11 2 17 5 13 3 -3 4 -12 1 -19z m143 -50 c-6 -13 -21 -41 -34 -63 -51 -85
-117 -65 -121 37 -2 29 -1 40 2 23 2 -16 7 -37 10 -45 3 -8 6 -18 5 -22 -1 -3
13 -10 30 -13 27 -6 36 -3 55 19 13 15 28 48 34 73 9 34 14 41 21 30 5 -9 4
-25 -2 -39z m289 -216 c57 -73 101 -135 99 -136 -1 -2 -41 -7 -88 -10 l-85 -7
-32 51 c-18 27 -33 53 -33 56 0 4 -10 21 -23 38 -12 17 -31 44 -41 59 -17 27
-17 28 1 19 16 -9 102 -6 112 4 2 1 -6 16 -18 32 -24 34 -30 66 -7 42 7 -8 59
-75 115 -148z m-248 48 c1 -8 1 -22 0 -30 -2 -12 0 -12 7 -1 7 9 23 -9 61 -70
28 -46 57 -91 63 -100 6 -9 8 -24 4 -34 -5 -15 -10 -11 -31 20 -14 20 -22 41
-19 47 4 6 3 8 -3 5 -5 -4 -16 5 -23 19 -18 33 -36 27 -62 -18 l-21 -36 32
-64 c18 -35 40 -75 49 -90 15 -25 15 -30 -4 -70 l-21 -43 -52 108 c-55 117
-61 136 -31 97 28 -36 26 -6 -4 72 -14 35 -32 91 -42 126 l-17 63 34 34 34 34
22 -27 c13 -15 23 -34 24 -42z m-301 -122 c116 -49 164 -159 102 -229 -24 -27
-37 -33 -83 -36 -107 -9 -230 66 -249 151 -27 122 84 177 230 114z m203 -44
c20 -36 31 -64 26 -62 -9 3 -72 128 -64 128 2 0 19 -29 38 -66z m467 -64 c0
-4 -23 -10 -50 -12 -45 -3 -67 5 -39 14 22 7 89 6 89 -2z m-115 -10 c-3 -5
-17 -10 -31 -10 -13 0 -24 5 -24 10 0 6 14 10 31 10 17 0 28 -4 24 -10z m-121
-120 c-43 -103 -55 -140 -48 -151 3 -5 -2 -9 -10 -9 -21 0 -20 11 3 63 11 23
34 78 52 122 18 43 34 75 36 69 2 -5 -13 -48 -33 -94z m281 57 c17 -24 20
-122 5 -132 -6 -3 -10 4 -10 17 0 39 -27 68 -64 68 -80 0 -170 -102 -183 -209
-8 -68 2 -98 40 -121 l32 -20 -28 0 c-44 0 -64 16 -82 64 -13 33 -15 58 -10
93 7 47 52 154 77 183 66 78 187 109 223 57z m128 -4 c-7 -2 -19 -2 -25 0 -7
3 -2 5 12 5 14 0 19 -2 13 -5z m87 -163 c0 -104 -9 -112 -59 -54 -38 43 -37
86 4 122 48 41 55 32 55 -68z m620 1 c0 -50 -4 -93 -10 -96 -13 -8 -93 28
-119 54 -22 22 -29 81 -10 81 5 0 8 4 5 9 -9 14 55 41 97 41 l37 0 0 -89z
m-792 19 c-5 -30 6 -41 15 -17 3 6 6 -5 6 -26 1 -23 5 -36 11 -32 13 8 12 5
-1 -34 -13 -37 -21 -38 -60 -10 l-29 20 19 37 c10 20 21 49 25 65 9 37 19 35
14 -3z m340 24 l52 -7 0 -121 c0 -67 -5 -140 -10 -163 -6 -27 -7 -59 -1 -85 5
-24 13 -115 16 -204 l7 -160 -63 4 c-35 2 -69 9 -75 16 -14 13 -44 141 -44
184 0 17 6 32 15 35 8 4 24 25 37 49 17 33 22 60 23 118 0 88 -23 143 -73 175
-28 18 -31 25 -31 70 -1 84 5 95 53 95 22 0 65 -3 94 -6z m-559 -45 c-8 -15
-8 -24 0 -28 7 -5 5 -21 -5 -51 -9 -25 -13 -60 -10 -77 5 -37 4 -39 -18 -17
-10 9 -16 33 -16 59 0 47 33 135 50 135 7 0 7 -7 -1 -21z m334 -136 c-13 -2
-35 -2 -50 0 -16 2 -5 4 22 4 28 0 40 -2 28 -4z m620 0 c-13 -2 -33 -2 -45 0
-13 2 -3 4 22 4 25 0 35 -2 23 -4z m-120 -43 c16 -26 27 -25 28 3 0 18 3 16
16 -12 18 -42 19 -125 2 -166 -12 -28 -13 -29 -16 -7 -6 29 -17 28 -32 -4 -6
-15 -14 -24 -17 -21 -3 3 -1 14 5 25 20 38 13 125 -14 176 -23 43 -23 46 -5
36 11 -6 26 -20 33 -30z m-698 6 c55 -55 58 -170 5 -226 -38 -41 -72 -40 -116
4 -23 23 -34 43 -34 63 l1 28 13 -30 c43 -98 131 -75 143 37 4 37 1 49 -22 76
-20 24 -35 32 -61 32 -23 0 -34 5 -34 14 0 33 72 34 105 2z m105 -26 c0 35 17
7 25 -42 7 -42 -11 -148 -26 -148 -5 0 -9 7 -9 15 0 21 -8 19 -32 -7 -18 -21
-19 -21 -12 -3 17 48 16 140 -2 180 -10 22 -20 45 -22 50 -3 6 14 -8 37 -30
40 -38 41 -38 41 -15z m527 28 c65 -72 46 -219 -31 -247 -35 -13 -75 8 -96 50
-47 91 -3 219 75 219 20 0 39 -8 52 -22z m-317 -44 c0 -8 5 -14 10 -14 6 0 10
8 10 18 1 15 2 15 12 -3 16 -27 14 -125 -2 -155 l-14 -25 -6 25 -6 25 -18 -33
c-22 -43 -32 -35 -16 13 12 37 10 152 -4 190 -7 17 -5 17 13 -4 12 -13 21 -29
21 -37z m-65 36 c4 -6 -15 -10 -49 -10 -31 0 -56 5 -56 10 0 6 22 10 49 10 28
0 53 -4 56 -10z m625 0 c0 -5 -22 -10 -50 -10 -27 0 -50 5 -50 10 0 6 23 10
50 10 28 0 50 -4 50 -10z m54 -17 l15 -28 1 28 c0 40 16 25 29 -29 13 -53 6
-125 -16 -151 -8 -10 -12 -13 -8 -6 3 7 3 24 -1 38 -6 26 -7 26 -25 -14 -10
-23 -20 -41 -22 -41 -2 0 2 24 10 53 13 48 11 123 -3 162 -10 25 5 16 20 -12z
m-954 -68 c0 -24 -70 -32 -117 -14 l-28 11 50 22 c45 20 52 21 73 8 12 -8 22
-20 22 -27z m290 25 c0 -5 -22 -10 -49 -10 -28 0 -53 5 -56 10 -4 6 15 10 49
10 31 0 56 -4 56 -10z m630 0 c0 -5 -25 -10 -55 -10 -30 0 -55 5 -55 10 0 6
25 10 55 10 30 0 55 -4 55 -10z m-630 -60 c0 -5 -22 -10 -50 -10 -27 0 -50 5
-50 10 0 6 23 10 50 10 28 0 50 -4 50 -10z m630 0 c0 -5 -25 -10 -55 -10 -30
0 -55 5 -55 10 0 6 25 10 55 10 30 0 55 -4 55 -10z m-967 -70 c-6 -6 -33 30
-33 44 0 6 9 0 20 -14 10 -14 16 -27 13 -30z m957 20 c0 -5 -25 -10 -56 -10
-34 0 -53 4 -49 10 3 6 28 10 56 10 27 0 49 -4 49 -10z m-630 -10 c0 -5 -25
-10 -56 -10 -34 0 -53 4 -49 10 3 6 28 10 56 10 27 0 49 -4 49 -10z m-20 -48
c0 -20 -28 -32 -72 -32 -46 0 -48 1 -38 20 8 16 21 20 60 20 28 0 50 -4 50 -8z
m618 -4 c-3 -8 -26 -14 -56 -16 -43 -3 -51 -1 -46 12 8 20 108 23 102 4z
m-601 -123 c9 -19 23 -35 32 -35 8 0 12 -3 8 -6 -3 -3 -2 -16 2 -28 5 -11 11
-34 15 -50 l7 -28 -63 7 c-73 9 -99 13 -104 18 -9 8 -6 119 3 128 5 5 20 11
33 14 12 2 25 7 28 10 12 12 23 3 39 -30z m628 -5 c9 -17 19 -30 24 -30 7 0
31 -73 31 -96 0 -7 -129 2 -137 10 -11 11 -7 120 5 124 7 2 10 7 8 10 -2 4 9
8 25 9 23 2 32 -4 44 -27z m158 -170 c28 0 35 -18 21 -54 -13 -33 -224 -11
-224 23 0 5 24 12 53 15 29 4 59 11 67 17 8 5 24 7 35 4 11 -2 32 -5 48 -5z
m-615 -6 c19 -5 23 -12 20 -38 l-3 -31 -95 1 c-52 1 -108 7 -125 14 l-30 12
47 17 c26 9 50 19 54 24 9 9 100 9 132 1z m269 -58 c-3 -7 -15 -16 -27 -19
-19 -5 -21 -3 -15 26 4 18 14 38 23 45 15 11 17 10 20 -13 2 -15 1 -32 -1 -39z
m-627 19 c0 -29 -5 -37 -26 -46 -15 -5 -28 -8 -30 -6 -4 3 45 87 52 87 2 0 4
-16 4 -35z m411 -18 c-8 -8 -11 -5 -11 9 0 27 14 41 18 19 2 -9 -1 -22 -7 -28z
m-594 -9 c-3 -8 -6 -5 -6 6 -1 11 2 17 5 13 3 -3 4 -12 1 -19z m-7 -27 c0 -5
-7 -12 -16 -15 -14 -5 -15 -4 -4 9 14 17 20 19 20 6z m530 -5 c14 -2 -50 -4
-142 -5 -93 0 -168 2 -168 7 0 7 251 5 310 -2z m645 4 c-7 -11 -106 -11 -240
-1 -82 7 -75 8 78 9 110 1 166 -1 162 -8z m-1083 -22 c-7 -7 -12 -8 -12 -2 0
14 12 26 19 19 2 -3 -1 -11 -7 -17z m728 18 c0 -4 -75 -41 -147 -72 -61 -26
-33 -4 45 35 71 37 102 48 102 37z m-705 -47 c-104 -50 -122 -50 -25 1 41 21
82 39 90 39 8 -1 -21 -18 -65 -40z m492 -1 c-3 -8 -6 -5 -6 6 -1 11 2 17 5 13
3 -3 4 -12 1 -19z m453 -28 c0 9 3 10 13 1 8 -6 16 -9 18 -7 2 2 26 7 53 10
46 7 52 4 126 -44 43 -28 86 -61 96 -72 l19 -21 -70 6 c-38 4 -102 7 -141 7
-69 0 -73 1 -118 41 -48 42 -54 57 -34 77 8 8 15 9 25 1 10 -9 13 -8 13 1z
m-386 -63 c47 -33 89 -64 93 -69 4 -8 -43 -9 -157 -5 -133 5 -166 9 -181 23
-11 10 -19 22 -19 28 0 7 -9 18 -20 26 -25 18 -26 39 0 48 10 4 59 7 109 7
l89 0 86 -58z m-652 -75 c8 -9 7 -11 -6 -6 -10 4 -16 16 -15 33 1 20 2 22 6 6
3 -11 10 -26 15 -33z m41 -54 c12 -7 40 -18 62 -25 38 -11 38 -12 -23 -6 -89
8 -125 17 -130 31 -5 16 62 16 91 0z m1347 -28 c0 -19 -6 -20 -157 -18 l-158
2 115 6 c111 5 114 9 20 23 -14 3 21 5 78 6 96 1 102 0 102 -19z m-615 -15 c0
-17 -8 -20 -60 -23 -33 -1 -85 1 -115 6 l-55 10 69 1 c85 1 81 10 -11 21 -61
7 -55 8 52 6 113 -1 120 -2 120 -21z"/>
<path d="M2193 3893 c-37 -5 -106 -65 -112 -98 -11 -62 -4 -162 12 -197 27
-53 88 -92 144 -92 37 1 50 7 83 39 59 58 79 136 56 215 -8 26 -11 52 -8 56 4
4 2 4 -5 0 -7 -4 -18 5 -27 22 -21 40 -80 62 -143 55z m85 -43 c64 -40 93
-161 53 -226 -18 -30 -21 -31 -64 -24 -25 4 -54 13 -63 21 -22 18 -50 83 -59
137 -6 39 -4 45 28 77 40 40 59 43 105 15z m2 -280 c-8 -5 -26 -9 -40 -9 -23
1 -23 2 5 9 43 11 52 11 35 0z"/>
<path d="M2206 3758 c-23 -33 -20 -75 9 -103 29 -30 35 -31 69 -4 49 39 26
129 -34 129 -18 0 -34 -8 -44 -22z m74 -34 c0 -8 -4 -12 -10 -9 -5 3 -10 13
-10 21 0 8 5 12 10 9 6 -3 10 -13 10 -21z"/>
<path d="M2584 3797 c-12 -7 -34 -27 -50 -46 -26 -31 -29 -42 -29 -106 0 -59
4 -77 25 -107 116 -170 305 6 213 199 -27 57 -110 88 -159 60z m111 -51 c36
-36 51 -97 36 -146 -10 -33 -17 -40 -45 -46 -43 -8 -70 7 -101 56 -32 51 -32
90 1 129 32 39 75 41 109 7z"/>
<path d="M2620 3700 c-38 -38 -15 -120 35 -120 51 0 73 80 32 118 -29 27 -41
28 -67 2z m60 -41 c0 -6 -4 -7 -10 -4 -5 3 -10 11 -10 16 0 6 5 7 10 4 6 -3
10 -11 10 -16z"/>
<path d="M2408 3537 c-78 -84 -74 -97 32 -105 l72 -5 -4 29 c-1 16 -11 38 -20
48 -10 11 -18 27 -18 37 0 32 -30 30 -62 -4z"/>
<path d="M2132 3348 l3 -83 130 -18 c72 -10 200 -29 285 -42 85 -13 159 -20
163 -16 4 5 7 41 5 82 l-3 73 -60 12 c-33 7 -80 15 -105 19 -51 6 -131 18
-142 21 -5 1 -23 2 -40 3 -25 1 -29 4 -18 11 9 6 10 10 3 10 -6 0 -14 -4 -17
-9 -3 -5 -22 -5 -43 -1 -21 4 -66 11 -101 14 l-63 7 3 -83z m58 -28 c0 -31
-16 -41 -26 -15 -8 19 2 45 16 45 5 0 10 -13 10 -30z m58 -2 c-4 -46 -28 -49
-28 -4 0 26 4 36 16 36 11 0 14 -8 12 -32z m52 -9 c0 -52 -24 -48 -28 4 -2 28
1 37 12 37 12 0 16 -11 16 -41z m60 1 c0 -29 -4 -40 -15 -40 -11 0 -15 11 -15
40 0 29 4 40 15 40 11 0 15 -11 15 -40z m58 -7 c-2 -26 -8 -38 -18 -38 -10 0
-16 12 -18 38 -3 32 0 37 18 37 18 0 21 -5 18 -37z m52 -14 c0 -28 -4 -39 -15
-39 -11 0 -15 11 -15 38 0 21 3 42 6 45 14 13 24 -6 24 -44z m55 -2 c0 -52
-19 -51 -23 2 -2 32 0 42 10 39 8 -3 13 -20 13 -41z m53 -18 c-2 -19 -7 -33
-13 -32 -12 3 -19 49 -10 71 10 26 27 -2 23 -39z m57 -4 c0 -43 -29 -40 -33 3
-3 28 0 33 15 30 13 -2 18 -12 18 -33z m53 -18 c2 -19 -1 -27 -12 -27 -11 0
-16 10 -16 31 0 38 24 35 28 -4z"/>
<path d="M3178 3134 c-25 -13 -28 -20 -28 -63 0 -30 -5 -51 -12 -54 -10 -4
-10 -6 0 -6 7 -1 10 -6 6 -12 -13 -21 -7 -218 7 -235 16 -19 79 -15 96 6 16
21 18 347 2 366 -15 18 -37 17 -71 -2z m30 -322 c15 -11 15 -14 2 -22 -37 -24
-40 -14 -40 134 0 189 14 222 18 41 2 -119 5 -142 20 -153z"/>
<path d="M2051 2898 c-5 -14 -9 -74 -7 -133 2 -128 3 -129 113 -139 43 -4 112
-10 153 -13 41 -4 107 -7 145 -8 l70 0 3 119 c3 130 -1 143 -52 150 -49 8
-186 25 -241 31 -27 2 -78 8 -112 11 -60 6 -63 6 -72 -18z m320 -53 c11 -4 40
-8 64 -9 25 -1 47 -5 50 -8 3 -3 5 -37 3 -74 -3 -60 -5 -66 -14 -44 -6 14 -14
24 -18 23 -3 -2 -5 0 -3 3 1 4 -8 10 -20 15 -13 5 -23 16 -23 26 -1 16 -2 16
-12 -1 -9 -17 -7 -22 12 -35 13 -9 29 -22 34 -29 6 -7 19 -22 29 -33 17 -19
17 -19 -5 -15 -13 3 -48 8 -79 11 -31 3 -65 13 -75 20 -11 8 -27 15 -36 15
-10 0 -18 5 -18 10 0 6 -9 10 -20 10 -11 0 -20 3 -20 8 0 4 -12 15 -27 24 -21
13 -23 18 -10 18 9 0 17 5 17 11 0 12 -37 3 -58 -14 -9 -7 -11 -6 -6 7 3 9 1
23 -6 31 -9 11 -10 15 -1 15 7 0 11 8 10 18 -1 9 -1 20 0 23 1 6 200 -16 232
-26z m-258 -91 c-5 -15 23 -21 29 -6 2 4 18 -6 36 -23 l33 -32 -48 7 c-26 4
-49 13 -51 19 -2 6 -10 11 -18 11 -8 0 -14 10 -14 24 0 19 4 23 19 19 12 -3
17 -11 14 -19z m4 -80 c-3 -3 -12 -4 -19 -1 -8 3 -5 6 6 6 11 1 17 -2 13 -5z
m76 -11 c-7 -2 -19 -2 -25 0 -7 3 -2 5 12 5 14 0 19 -2 13 -5z"/>
<path d="M2233 2812 c-13 -2 -23 -10 -23 -18 0 -17 12 -18 28 -2 9 9 12 9 12
-1 0 -11 3 -11 15 -1 8 7 15 9 15 4 0 -5 17 -10 37 -12 20 -1 42 -7 48 -12 9
-8 14 -6 19 5 3 8 0 15 -7 15 -7 1 -37 6 -67 13 -30 7 -65 11 -77 9z"/>
<path d="M2715 2831 c-97 -27 -138 -156 -85 -266 31 -64 72 -90 139 -89 50 0
57 3 86 37 34 39 45 74 45 136 0 37 -30 112 -52 134 -40 38 -95 58 -133 48z
m25 -41 c0 -6 10 -8 23 -5 32 9 72 -26 93 -80 13 -36 14 -48 4 -60 -9 -11 -10
-15 0 -15 14 0 4 -54 -16 -86 -17 -26 -61 -47 -77 -37 -7 4 -20 6 -31 4 -24
-4 -73 44 -85 83 -5 17 -9 55 -10 84 -1 49 2 57 33 88 33 33 66 45 66 24z"/>
<path d="M2680 2744 c0 -3 11 -20 24 -37 13 -18 26 -43 28 -57 4 -33 42 -35
46 -3 3 17 -3 26 -21 32 -14 5 -31 23 -38 40 -12 26 -39 44 -39 25z"/>
<path d="M2185 2576 c-19 -28 -9 -58 25 -76 21 -11 60 2 60 20 0 4 2 15 5 22
7 18 -31 58 -55 58 -11 0 -27 -11 -35 -24z m53 -35 c3 -8 -1 -12 -9 -9 -7 2
-15 10 -17 17 -3 8 1 12 9 9 7 -2 15 -10 17 -17z"/>
<path d="M2320 2570 c-11 -11 -20 -27 -20 -35 0 -17 35 -55 51 -55 49 0 68 66
27 94 -29 20 -34 20 -58 -4z m48 -38 c2 -7 -3 -12 -12 -12 -9 0 -16 7 -16 16
0 17 22 14 28 -4z"/>
<path d="M2452 2564 c-40 -28 -16 -94 34 -94 43 0 60 53 27 82 -31 26 -39 28
-61 12z m38 -45 c0 -5 -4 -9 -10 -9 -5 0 -10 7 -10 16 0 8 5 12 10 9 6 -3 10
-10 10 -16z"/>
<path d="M2067 2432 c-13 -14 -17 -38 -17 -95 0 -103 11 -112 157 -121 197
-13 576 -44 629 -51 52 -7 73 25 70 107 -2 85 -20 107 -91 112 -28 2 -90 7
-140 11 -49 4 -103 8 -120 11 -16 2 -86 8 -155 14 -69 6 -136 13 -150 16 -14
2 -57 7 -96 9 -60 4 -73 2 -87 -13z m126 -62 c33 0 35 -13 5 -26 -37 -15 -78
-6 -78 18 0 16 5 19 23 14 12 -3 34 -6 50 -6z m77 -9 c0 -18 -18 -21 -30 -6
-10 13 -9 15 9 15 11 0 21 -4 21 -9z m68 -13 c-7 -19 -45 -21 -51 -4 -5 12 1
16 24 16 20 0 29 -4 27 -12z m73 -2 c17 10 31 -7 18 -22 -9 -11 -13 -11 -25 1
-8 7 -14 20 -13 27 0 10 2 10 6 0 2 -6 9 -10 14 -6z m149 -20 c-19 -7 -42 -9
-51 -5 -9 5 -19 6 -22 3 -3 -3 -11 -3 -17 1 -22 13 6 20 67 16 l58 -3 -35 -12z
m158 -2 c12 -2 22 -10 22 -17 0 -8 -15 -11 -47 -9 -69 4 -93 11 -93 25 0 12
64 13 118 1z m-424 -27 c22 2 46 8 53 14 9 8 21 4 44 -16 l32 -26 -89 7 c-49
3 -100 8 -114 10 -14 1 -32 3 -40 4 -8 1 -1 8 15 15 24 11 33 11 45 1 8 -7 32
-11 54 -9z m506 11 c0 -4 -11 -8 -25 -8 -14 0 -25 4 -25 10 0 5 11 9 25 8 14
-1 25 -6 25 -10z m-645 -8 c-3 -5 -12 -7 -20 -3 -21 7 -19 13 6 13 11 0 18 -4
14 -10z m400 -20 c0 -1 17 -3 38 -4 21 -2 42 -7 48 -13 10 -10 -125 -8 -176 2
-11 2 -24 4 -28 4 -5 1 -6 5 -3 9 4 7 121 8 121 2z m245 -32 c0 -11 -127 -10
-134 1 -3 5 26 9 64 8 39 0 70 -4 70 -9z"/>
<path d="M2050 2120 c0 -66 1 -71 26 -80 14 -6 59 -10 101 -10 67 0 74 -2 63
-15 -10 -12 -10 -21 -1 -42 9 -21 9 -28 0 -34 -10 -6 -10 -13 -1 -33 10 -22
19 -26 54 -27 24 -1 55 -3 70 -4 31 -4 66 28 51 47 -10 14 -10 85 1 95 3 3 6
37 6 74 0 80 8 75 -135 83 -49 3 -123 7 -162 10 l-73 6 0 -70z"/>
<path d="M2555 2141 c-10 -17 -1 -122 12 -133 9 -7 9 -14 1 -28 -9 -14 -9 -22
3 -36 11 -13 11 -18 2 -21 -7 -3 -13 -13 -13 -23 0 -9 6 -22 13 -28 16 -13
130 -23 147 -12 19 12 21 37 4 51 -11 9 -11 13 1 26 12 11 12 19 4 35 -11 20
-9 20 83 17 l93 -4 3 61 c2 41 -1 64 -10 71 -7 6 -79 15 -159 22 -177 13 -176
13 -184 2z"/>
<path d="M2067 1845 c-13 -12 -17 -34 -17 -91 0 -101 13 -114 113 -114 79 0
93 -5 98 -35 5 -23 40 -27 317 -40 l152 -7 0 26 c0 26 0 26 74 24 100 -4 106
3 106 106 0 69 -3 83 -19 93 -21 13 -176 24 -667 48 -124 7 -142 5 -157 -10z
m63 -37 c-11 -9 -21 -28 -22 -42 -4 -41 -18 -30 -18 12 0 46 1 47 35 47 26 0
26 0 5 -17z m155 -14 c-7 -8 -17 -23 -20 -34 -9 -28 -25 -25 -25 4 0 14 -5 28
-10 31 -19 12 -1 21 34 17 30 -4 33 -6 21 -18z m175 5 c0 -5 5 -7 10 -4 6 4
10 -6 11 -22 0 -15 1 -47 2 -71 l2 -42 -37 0 c-24 0 -38 5 -38 13 0 9 -2 9 -8
0 -4 -7 -13 -9 -21 -4 -10 7 -8 12 10 25 13 9 19 16 14 16 -5 0 -4 5 2 11 12
12 5 61 -8 53 -5 -3 -9 1 -9 10 0 8 -6 17 -12 19 -7 3 8 6 35 6 27 1 47 -4 47
-10z m410 -91 c0 -39 -3 -68 -7 -65 -9 10 -10 137 0 137 4 0 7 -32 7 -72z
m-685 32 c-5 -8 -11 -8 -17 -2 -6 6 -7 16 -3 22 5 8 11 8 17 2 6 -6 7 -16 3
-22z m630 9 c26 -10 -252 2 -285 12 -14 4 40 5 120 2 80 -3 154 -9 165 -14z
m-470 -7 c0 -18 -20 -15 -23 4 -3 10 1 15 10 12 7 -3 13 -10 13 -16z m-220
-38 l25 -25 -27 3 c-20 2 -29 9 -31 26 -4 28 1 28 33 -4z m156 -2 c15 -27 15
-28 -5 -26 -12 1 -29 3 -38 3 -15 1 -16 5 -6 26 15 33 29 32 49 -3z"/>
<path d="M2451 1141 c-46 -46 -30 -160 24 -181 33 -13 60 1 80 40 48 93 -36
209 -104 141z m52 -83 c-10 -21 -12 -21 -18 -5 -10 25 2 54 17 39 8 -8 8 -18
1 -34z"/>
<path d="M922 3708 l3 -62 103 -24 102 -23 0 -40 c0 -26 -7 -46 -20 -59 -24
-24 -28 -24 -105 -5 -90 21 -86 23 -83 -47 l3 -63 82 -19 c90 -20 122 -17 154
15 11 11 22 19 23 17 1 -1 13 -18 25 -36 44 -64 156 -93 210 -56 40 29 51 72
51 213 0 115 -2 130 -17 135 -10 2 -90 21 -178 41 -88 20 -197 45 -243 56
-119 27 -113 29 -110 -43z m393 -151 c44 -11 50 -15 53 -41 8 -69 -27 -107
-80 -87 -35 13 -55 45 -64 99 -6 40 -5 42 17 41 13 0 47 -6 74 -12z"/>
<path d="M921 1158 c4 -120 7 -139 30 -183 36 -71 93 -109 165 -109 51 -1 59
2 83 31 l26 32 17 -29 c35 -62 126 -89 177 -54 40 28 51 73 51 202 l0 118 -77
18 c-43 10 -152 35 -243 56 -91 21 -180 41 -199 45 l-33 7 3 -134z m204 -42
c36 -11 40 -15 43 -47 2 -23 -3 -43 -16 -59 -16 -19 -24 -22 -55 -16 -42 8
-62 33 -72 88 -12 62 -6 64 100 34z m231 -53 c16 -6 18 -56 4 -84 -14 -25 -51
-24 -84 2 -20 16 -26 29 -26 61 l0 40 46 -7 c26 -3 53 -9 60 -12z"/>
<path d="M86 1032 c-2 -4 4 -8 15 -8 10 0 19 4 19 8 0 4 -6 8 -14 8 -8 0 -17
-4 -20 -8z"/>
<path d="M81 894 c0 -11 3 -14 6 -6 3 7 2 16 -1 19 -3 4 -6 -2 -5 -13z"/>
<path d="M80 840 c0 -6 7 -10 15 -10 8 0 15 2 15 4 0 2 -7 6 -15 10 -8 3 -15
1 -15 -4z"/>
<path d="M81 804 c0 -11 3 -14 6 -6 3 7 2 16 -1 19 -3 4 -6 -2 -5 -13z"/>
<path d="M1075 780 c-99 -15 -156 -82 -163 -194 -5 -91 21 -165 84 -235 119
-132 345 -165 436 -64 51 56 63 173 28 267 -55 146 -231 250 -385 226z m186
-162 c69 -35 104 -76 115 -134 21 -114 -107 -162 -245 -93 -78 39 -112 86
-114 155 0 41 4 51 32 76 46 41 124 40 212 -4z"/>
<path d="M93 763 c9 -2 23 -2 30 0 6 3 -1 5 -18 5 -16 0 -22 -2 -12 -5z"/>
<path d="M80 711 c0 -6 4 -13 10 -16 6 -3 7 1 4 9 -7 18 -14 21 -14 7z"/>
<path d="M95 520 c-18 -8 -17 -9 8 -9 16 -1 26 3 22 9 -3 6 -7 10 -8 9 -1 0
-11 -4 -22 -9z"/>
<path d="M108 423 c7 -3 16 -2 19 1 4 3 -2 6 -13 5 -11 0 -14 -3 -6 -6z"/>
<path d="M108 293 c7 -3 16 -2 19 1 4 3 -2 6 -13 5 -11 0 -14 -3 -6 -6z"/>
<path d="M93 243 c9 -2 23 -2 30 0 6 3 -1 5 -18 5 -16 0 -22 -2 -12 -5z"/>
<path d="M93 173 c9 -2 23 -2 30 0 6 3 -1 5 -18 5 -16 0 -22 -2 -12 -5z"/>
<path d="M94 106 c11 -9 24 -16 30 -16 12 0 7 5 -24 19 -24 11 -24 11 -6 -3z"/>
</g>
</svg>
